<mxfile host="app.diagrams.net" modified="2023-05-21T09:09:28.351Z" agent="Mozilla/5.0 (Windows NT 10.0; Win64; x64) AppleWebKit/537.36 (KHTML, like Gecko) Chrome/113.0.0.0 Safari/537.36" etag="UgleC2gfcgX82kJun3F6" version="21.3.2" type="github">
  <diagram name="Page-1" id="z79Tmz3kSJbCIWi3D5J_">
    <mxGraphModel dx="1242" dy="1568" grid="1" gridSize="10" guides="1" tooltips="1" connect="1" arrows="1" fold="1" page="1" pageScale="1" pageWidth="850" pageHeight="1100" math="0" shadow="0">
      <root>
        <mxCell id="0" />
        <mxCell id="1" parent="0" />
        <mxCell id="pS3guI-tFmk6sZYJYbPy-8" value="" style="endArrow=none;html=1;rounded=0;entryX=0.422;entryY=1.008;entryDx=0;entryDy=0;entryPerimeter=0;exitX=0.167;exitY=-0.006;exitDx=0;exitDy=0;exitPerimeter=0;" parent="1" source="pS3guI-tFmk6sZYJYbPy-14" target="pS3guI-tFmk6sZYJYbPy-9" edge="1">
          <mxGeometry width="50" height="50" relative="1" as="geometry">
            <mxPoint y="-650" as="sourcePoint" />
            <mxPoint x="50" y="-680" as="targetPoint" />
          </mxGeometry>
        </mxCell>
        <mxCell id="vvdEDq1yxeeyfwB21JRT-38" style="edgeStyle=orthogonalEdgeStyle;rounded=0;orthogonalLoop=1;jettySize=auto;html=1;exitX=1;exitY=1;exitDx=0;exitDy=0;entryX=0.5;entryY=1;entryDx=0;entryDy=0;" parent="1" source="pS3guI-tFmk6sZYJYbPy-9" target="pS3guI-tFmk6sZYJYbPy-27" edge="1">
          <mxGeometry relative="1" as="geometry" />
        </mxCell>
        <mxCell id="pS3guI-tFmk6sZYJYbPy-9" value="" style="ellipse;whiteSpace=wrap;html=1;" parent="1" vertex="1">
          <mxGeometry x="-150" y="-680" width="120" height="40" as="geometry" />
        </mxCell>
        <mxCell id="pS3guI-tFmk6sZYJYbPy-14" value="" style="rounded=0;whiteSpace=wrap;html=1;" parent="1" vertex="1">
          <mxGeometry x="-20" y="-640" width="120" height="60" as="geometry" />
        </mxCell>
        <mxCell id="pS3guI-tFmk6sZYJYbPy-15" value="Patient&lt;br&gt;" style="text;html=1;strokeColor=none;fillColor=none;align=center;verticalAlign=middle;whiteSpace=wrap;rounded=0;" parent="1" vertex="1">
          <mxGeometry x="-10" y="-625" width="100" height="30" as="geometry" />
        </mxCell>
        <mxCell id="pS3guI-tFmk6sZYJYbPy-17" value="" style="endArrow=none;html=1;rounded=0;entryX=0.5;entryY=1;entryDx=0;entryDy=0;" parent="1" target="pS3guI-tFmk6sZYJYbPy-18" edge="1">
          <mxGeometry width="50" height="50" relative="1" as="geometry">
            <mxPoint x="20" y="-640" as="sourcePoint" />
            <mxPoint x="70" y="-690" as="targetPoint" />
          </mxGeometry>
        </mxCell>
        <mxCell id="pS3guI-tFmk6sZYJYbPy-18" value="" style="ellipse;whiteSpace=wrap;html=1;" parent="1" vertex="1">
          <mxGeometry x="-140" y="-740" width="120" height="40" as="geometry" />
        </mxCell>
        <mxCell id="pS3guI-tFmk6sZYJYbPy-20" value="" style="endArrow=none;html=1;rounded=0;entryX=0.5;entryY=1;entryDx=0;entryDy=0;" parent="1" target="pS3guI-tFmk6sZYJYbPy-22" edge="1">
          <mxGeometry width="50" height="50" relative="1" as="geometry">
            <mxPoint x="70" y="-640" as="sourcePoint" />
            <mxPoint x="120" y="-690" as="targetPoint" />
          </mxGeometry>
        </mxCell>
        <mxCell id="pS3guI-tFmk6sZYJYbPy-22" value="" style="ellipse;whiteSpace=wrap;html=1;" parent="1" vertex="1">
          <mxGeometry x="-90" y="-800" width="120" height="50" as="geometry" />
        </mxCell>
        <mxCell id="pS3guI-tFmk6sZYJYbPy-23" value="" style="endArrow=none;html=1;rounded=0;" parent="1" edge="1">
          <mxGeometry width="50" height="50" relative="1" as="geometry">
            <mxPoint x="90" y="-640" as="sourcePoint" />
            <mxPoint x="110" y="-830" as="targetPoint" />
          </mxGeometry>
        </mxCell>
        <mxCell id="pS3guI-tFmk6sZYJYbPy-26" value="Age" style="text;html=1;strokeColor=none;fillColor=none;align=center;verticalAlign=middle;whiteSpace=wrap;rounded=0;" parent="1" vertex="1">
          <mxGeometry x="-60" y="-795" width="60" height="30" as="geometry" />
        </mxCell>
        <mxCell id="pS3guI-tFmk6sZYJYbPy-27" value="PName" style="text;html=1;strokeColor=none;fillColor=none;align=center;verticalAlign=middle;whiteSpace=wrap;rounded=0;" parent="1" vertex="1">
          <mxGeometry x="-120" y="-735" width="60" height="30" as="geometry" />
        </mxCell>
        <mxCell id="pS3guI-tFmk6sZYJYbPy-29" value="&lt;u&gt;SSN&lt;/u&gt;" style="text;html=1;strokeColor=none;fillColor=none;align=center;verticalAlign=middle;whiteSpace=wrap;rounded=0;" parent="1" vertex="1">
          <mxGeometry x="-130" y="-675" width="60" height="30" as="geometry" />
        </mxCell>
        <mxCell id="pS3guI-tFmk6sZYJYbPy-30" style="edgeStyle=orthogonalEdgeStyle;rounded=0;orthogonalLoop=1;jettySize=auto;html=1;exitX=0.5;exitY=1;exitDx=0;exitDy=0;" parent="1" edge="1">
          <mxGeometry relative="1" as="geometry">
            <mxPoint x="90" y="-720" as="sourcePoint" />
            <mxPoint x="90" y="-720" as="targetPoint" />
          </mxGeometry>
        </mxCell>
        <mxCell id="pS3guI-tFmk6sZYJYbPy-31" value="Text" style="text;html=1;align=center;verticalAlign=middle;resizable=0;points=[];autosize=1;strokeColor=none;fillColor=none;" parent="1" vertex="1">
          <mxGeometry x="275" y="-755" width="50" height="30" as="geometry" />
        </mxCell>
        <mxCell id="pS3guI-tFmk6sZYJYbPy-34" value="" style="endArrow=none;html=1;rounded=0;entryX=0.5;entryY=1;entryDx=0;entryDy=0;" parent="1" target="pS3guI-tFmk6sZYJYbPy-14" edge="1">
          <mxGeometry width="50" height="50" relative="1" as="geometry">
            <mxPoint x="40" y="-520" as="sourcePoint" />
            <mxPoint x="40" y="-570" as="targetPoint" />
            <Array as="points">
              <mxPoint x="40" y="-560" />
            </Array>
          </mxGeometry>
        </mxCell>
        <mxCell id="pS3guI-tFmk6sZYJYbPy-35" value="" style="rhombus;whiteSpace=wrap;html=1;" parent="1" vertex="1">
          <mxGeometry x="-7.5" y="-520" width="95" height="100" as="geometry" />
        </mxCell>
        <mxCell id="pS3guI-tFmk6sZYJYbPy-36" value="Diagnose" style="text;html=1;strokeColor=none;fillColor=none;align=center;verticalAlign=middle;whiteSpace=wrap;rounded=0;" parent="1" vertex="1">
          <mxGeometry x="10" y="-485" width="60" height="30" as="geometry" />
        </mxCell>
        <mxCell id="pS3guI-tFmk6sZYJYbPy-37" value="" style="endArrow=none;html=1;rounded=0;exitX=0.5;exitY=1;exitDx=0;exitDy=0;" parent="1" source="pS3guI-tFmk6sZYJYbPy-35" target="pS3guI-tFmk6sZYJYbPy-38" edge="1">
          <mxGeometry width="50" height="50" relative="1" as="geometry">
            <mxPoint x="50" y="-360" as="sourcePoint" />
            <mxPoint x="40" y="-420" as="targetPoint" />
          </mxGeometry>
        </mxCell>
        <mxCell id="pS3guI-tFmk6sZYJYbPy-38" value="" style="rounded=0;whiteSpace=wrap;html=1;" parent="1" vertex="1">
          <mxGeometry x="-20" y="-360" width="120" height="60" as="geometry" />
        </mxCell>
        <mxCell id="pS3guI-tFmk6sZYJYbPy-41" value="Doctor" style="text;html=1;strokeColor=none;fillColor=none;align=center;verticalAlign=middle;whiteSpace=wrap;rounded=0;" parent="1" vertex="1">
          <mxGeometry x="10" y="-345" width="60" height="30" as="geometry" />
        </mxCell>
        <mxCell id="pS3guI-tFmk6sZYJYbPy-43" value="" style="endArrow=none;html=1;rounded=0;" parent="1" edge="1">
          <mxGeometry width="50" height="50" relative="1" as="geometry">
            <mxPoint x="70" y="-250" as="sourcePoint" />
            <mxPoint x="70" y="-300" as="targetPoint" />
          </mxGeometry>
        </mxCell>
        <mxCell id="pS3guI-tFmk6sZYJYbPy-44" value="" style="endArrow=none;html=1;rounded=0;exitX=0.25;exitY=1;exitDx=0;exitDy=0;" parent="1" source="pS3guI-tFmk6sZYJYbPy-38" target="pS3guI-tFmk6sZYJYbPy-45" edge="1">
          <mxGeometry width="50" height="50" relative="1" as="geometry">
            <mxPoint x="20" y="-240" as="sourcePoint" />
            <mxPoint x="30" y="-300" as="targetPoint" />
          </mxGeometry>
        </mxCell>
        <mxCell id="pS3guI-tFmk6sZYJYbPy-45" value="" style="ellipse;whiteSpace=wrap;html=1;" parent="1" vertex="1">
          <mxGeometry x="-100" y="-270" width="120" height="40" as="geometry" />
        </mxCell>
        <mxCell id="pS3guI-tFmk6sZYJYbPy-46" value="" style="ellipse;whiteSpace=wrap;html=1;" parent="1" vertex="1">
          <mxGeometry x="30" y="-260" width="100" height="40" as="geometry" />
        </mxCell>
        <mxCell id="pS3guI-tFmk6sZYJYbPy-47" value="&lt;u&gt;DSSN&lt;/u&gt;" style="text;html=1;strokeColor=none;fillColor=none;align=center;verticalAlign=middle;whiteSpace=wrap;rounded=0;" parent="1" vertex="1">
          <mxGeometry x="-70" y="-265" width="60" height="30" as="geometry" />
        </mxCell>
        <mxCell id="pS3guI-tFmk6sZYJYbPy-48" value="Text" style="text;html=1;strokeColor=none;fillColor=none;align=center;verticalAlign=middle;whiteSpace=wrap;rounded=0;" parent="1" vertex="1">
          <mxGeometry x="405" y="-485" width="60" height="30" as="geometry" />
        </mxCell>
        <mxCell id="pS3guI-tFmk6sZYJYbPy-49" value="DName" style="text;html=1;strokeColor=none;fillColor=none;align=center;verticalAlign=middle;whiteSpace=wrap;rounded=0;" parent="1" vertex="1">
          <mxGeometry x="50" y="-255" width="60" height="30" as="geometry" />
        </mxCell>
        <mxCell id="pS3guI-tFmk6sZYJYbPy-50" value="" style="rounded=0;whiteSpace=wrap;html=1;" parent="1" vertex="1">
          <mxGeometry x="380" y="-640" width="120" height="60" as="geometry" />
        </mxCell>
        <mxCell id="pS3guI-tFmk6sZYJYbPy-51" value="Prescription" style="text;html=1;strokeColor=none;fillColor=none;align=center;verticalAlign=middle;whiteSpace=wrap;rounded=0;" parent="1" vertex="1">
          <mxGeometry x="392.5" y="-630" width="95" height="35" as="geometry" />
        </mxCell>
        <mxCell id="pS3guI-tFmk6sZYJYbPy-52" value="" style="endArrow=none;html=1;rounded=0;" parent="1" target="pS3guI-tFmk6sZYJYbPy-53" edge="1">
          <mxGeometry width="50" height="50" relative="1" as="geometry">
            <mxPoint x="392.5" y="-640" as="sourcePoint" />
            <mxPoint x="442.5" y="-690" as="targetPoint" />
            <Array as="points" />
          </mxGeometry>
        </mxCell>
        <mxCell id="pS3guI-tFmk6sZYJYbPy-53" value="&lt;u&gt;PrescriptionID&lt;/u&gt;" style="ellipse;whiteSpace=wrap;html=1;" parent="1" vertex="1">
          <mxGeometry x="240" y="-680" width="90" height="40" as="geometry" />
        </mxCell>
        <mxCell id="pS3guI-tFmk6sZYJYbPy-54" value="" style="endArrow=none;html=1;rounded=0;entryX=0.5;entryY=1;entryDx=0;entryDy=0;" parent="1" target="pS3guI-tFmk6sZYJYbPy-55" edge="1">
          <mxGeometry width="50" height="50" relative="1" as="geometry">
            <mxPoint x="410" y="-640" as="sourcePoint" />
            <mxPoint x="460" y="-690" as="targetPoint" />
          </mxGeometry>
        </mxCell>
        <mxCell id="pS3guI-tFmk6sZYJYbPy-55" value="Prescription" style="ellipse;whiteSpace=wrap;html=1;" parent="1" vertex="1">
          <mxGeometry x="260" y="-765" width="80" height="50" as="geometry" />
        </mxCell>
        <mxCell id="pS3guI-tFmk6sZYJYbPy-56" value="" style="endArrow=none;html=1;rounded=0;" parent="1" target="pS3guI-tFmk6sZYJYbPy-57" edge="1">
          <mxGeometry width="50" height="50" relative="1" as="geometry">
            <mxPoint x="450" y="-640" as="sourcePoint" />
            <mxPoint x="500" y="-690" as="targetPoint" />
            <Array as="points" />
          </mxGeometry>
        </mxCell>
        <mxCell id="pS3guI-tFmk6sZYJYbPy-57" value="" style="ellipse;whiteSpace=wrap;html=1;" parent="1" vertex="1">
          <mxGeometry x="310" y="-890" width="120" height="50" as="geometry" />
        </mxCell>
        <mxCell id="pS3guI-tFmk6sZYJYbPy-58" value="" style="endArrow=none;html=1;rounded=0;" parent="1" target="pS3guI-tFmk6sZYJYbPy-59" edge="1">
          <mxGeometry width="50" height="50" relative="1" as="geometry">
            <mxPoint x="480" y="-640" as="sourcePoint" />
            <mxPoint x="510" y="-670" as="targetPoint" />
            <Array as="points" />
          </mxGeometry>
        </mxCell>
        <mxCell id="pS3guI-tFmk6sZYJYbPy-59" value="" style="ellipse;whiteSpace=wrap;html=1;" parent="1" vertex="1">
          <mxGeometry x="410" y="-830" width="140" height="40" as="geometry" />
        </mxCell>
        <mxCell id="pS3guI-tFmk6sZYJYbPy-60" value="" style="endArrow=none;html=1;rounded=0;" parent="1" target="pS3guI-tFmk6sZYJYbPy-61" edge="1">
          <mxGeometry width="50" height="50" relative="1" as="geometry">
            <mxPoint x="425" y="-640" as="sourcePoint" />
            <mxPoint x="490" y="-740" as="targetPoint" />
          </mxGeometry>
        </mxCell>
        <mxCell id="pS3guI-tFmk6sZYJYbPy-61" value="" style="ellipse;whiteSpace=wrap;html=1;" parent="1" vertex="1">
          <mxGeometry x="260" y="-840" width="110" height="40" as="geometry" />
        </mxCell>
        <mxCell id="pS3guI-tFmk6sZYJYbPy-63" value="" style="ellipse;whiteSpace=wrap;html=1;" parent="1" vertex="1">
          <mxGeometry x="570" y="-875" width="110" height="50" as="geometry" />
        </mxCell>
        <mxCell id="pS3guI-tFmk6sZYJYbPy-66" value="" style="endArrow=none;html=1;rounded=0;entryX=0.417;entryY=0.993;entryDx=0;entryDy=0;entryPerimeter=0;" parent="1" target="pS3guI-tFmk6sZYJYbPy-63" edge="1">
          <mxGeometry width="50" height="50" relative="1" as="geometry">
            <mxPoint x="487.5" y="-640" as="sourcePoint" />
            <mxPoint x="580" y="-750" as="targetPoint" />
          </mxGeometry>
        </mxCell>
        <mxCell id="pS3guI-tFmk6sZYJYbPy-74" value="SSN" style="text;html=1;strokeColor=none;fillColor=none;align=center;verticalAlign=middle;whiteSpace=wrap;rounded=0;" parent="1" vertex="1">
          <mxGeometry x="285" y="-835" width="60" height="30" as="geometry" />
        </mxCell>
        <mxCell id="pS3guI-tFmk6sZYJYbPy-75" value="DoctorID" style="text;html=1;strokeColor=none;fillColor=none;align=center;verticalAlign=middle;whiteSpace=wrap;rounded=0;" parent="1" vertex="1">
          <mxGeometry x="345" y="-880" width="60" height="30" as="geometry" />
        </mxCell>
        <mxCell id="pS3guI-tFmk6sZYJYbPy-76" value="Dosage" style="text;html=1;strokeColor=none;fillColor=none;align=center;verticalAlign=middle;whiteSpace=wrap;rounded=0;" parent="1" vertex="1">
          <mxGeometry x="450" y="-825" width="60" height="30" as="geometry" />
        </mxCell>
        <mxCell id="pS3guI-tFmk6sZYJYbPy-80" value="Pharmacy Name" style="text;html=1;strokeColor=none;fillColor=none;align=center;verticalAlign=middle;whiteSpace=wrap;rounded=0;" parent="1" vertex="1">
          <mxGeometry x="585" y="-860" width="80" height="30" as="geometry" />
        </mxCell>
        <mxCell id="pS3guI-tFmk6sZYJYbPy-84" value="" style="endArrow=none;html=1;rounded=0;" parent="1" target="pS3guI-tFmk6sZYJYbPy-85" edge="1">
          <mxGeometry width="50" height="50" relative="1" as="geometry">
            <mxPoint x="490" y="-640" as="sourcePoint" />
            <mxPoint x="590" y="-710" as="targetPoint" />
          </mxGeometry>
        </mxCell>
        <mxCell id="pS3guI-tFmk6sZYJYbPy-85" value="" style="ellipse;whiteSpace=wrap;html=1;" parent="1" vertex="1">
          <mxGeometry x="580" y="-765" width="120" height="40" as="geometry" />
        </mxCell>
        <mxCell id="pS3guI-tFmk6sZYJYbPy-86" value="Pharmacy Address" style="text;html=1;strokeColor=none;fillColor=none;align=center;verticalAlign=middle;whiteSpace=wrap;rounded=0;" parent="1" vertex="1">
          <mxGeometry x="605" y="-760" width="60" height="30" as="geometry" />
        </mxCell>
        <mxCell id="pS3guI-tFmk6sZYJYbPy-87" value="" style="rhombus;whiteSpace=wrap;html=1;" parent="1" vertex="1">
          <mxGeometry x="160" y="-640" width="150" height="80" as="geometry" />
        </mxCell>
        <mxCell id="pS3guI-tFmk6sZYJYbPy-88" value="Prescribed" style="text;html=1;strokeColor=none;fillColor=none;align=center;verticalAlign=middle;whiteSpace=wrap;rounded=0;" parent="1" vertex="1">
          <mxGeometry x="200" y="-620" width="60" height="30" as="geometry" />
        </mxCell>
        <mxCell id="pS3guI-tFmk6sZYJYbPy-89" value="" style="endArrow=none;html=1;rounded=0;entryX=0;entryY=0.5;entryDx=0;entryDy=0;" parent="1" target="pS3guI-tFmk6sZYJYbPy-87" edge="1">
          <mxGeometry width="50" height="50" relative="1" as="geometry">
            <mxPoint x="100" y="-600" as="sourcePoint" />
            <mxPoint x="150" y="-610" as="targetPoint" />
            <Array as="points">
              <mxPoint x="130" y="-600" />
            </Array>
          </mxGeometry>
        </mxCell>
        <mxCell id="pS3guI-tFmk6sZYJYbPy-90" value="" style="endArrow=none;html=1;rounded=0;entryX=0;entryY=0.5;entryDx=0;entryDy=0;" parent="1" target="pS3guI-tFmk6sZYJYbPy-50" edge="1">
          <mxGeometry width="50" height="50" relative="1" as="geometry">
            <mxPoint x="310" y="-600" as="sourcePoint" />
            <mxPoint x="360" y="-650" as="targetPoint" />
          </mxGeometry>
        </mxCell>
        <mxCell id="pS3guI-tFmk6sZYJYbPy-91" value="" style="endArrow=none;html=1;rounded=0;entryX=1;entryY=0.5;entryDx=0;entryDy=0;" parent="1" target="pS3guI-tFmk6sZYJYbPy-50" edge="1">
          <mxGeometry width="50" height="50" relative="1" as="geometry">
            <mxPoint x="440" y="-510" as="sourcePoint" />
            <mxPoint x="442.5" y="-580" as="targetPoint" />
            <Array as="points">
              <mxPoint x="520" y="-550" />
            </Array>
          </mxGeometry>
        </mxCell>
        <mxCell id="pS3guI-tFmk6sZYJYbPy-92" value="" style="rhombus;whiteSpace=wrap;html=1;" parent="1" vertex="1">
          <mxGeometry x="365" y="-510" width="150" height="80" as="geometry" />
        </mxCell>
        <mxCell id="pS3guI-tFmk6sZYJYbPy-93" value="Offer" style="text;html=1;strokeColor=none;fillColor=none;align=center;verticalAlign=middle;whiteSpace=wrap;rounded=0;" parent="1" vertex="1">
          <mxGeometry x="410" y="-485" width="60" height="30" as="geometry" />
        </mxCell>
        <mxCell id="pS3guI-tFmk6sZYJYbPy-94" value="" style="rounded=0;whiteSpace=wrap;html=1;" parent="1" vertex="1">
          <mxGeometry x="600" y="-490" width="105" height="40" as="geometry" />
        </mxCell>
        <mxCell id="pS3guI-tFmk6sZYJYbPy-96" value="Pharmacy" style="text;html=1;strokeColor=none;fillColor=none;align=center;verticalAlign=middle;whiteSpace=wrap;rounded=0;" parent="1" vertex="1">
          <mxGeometry x="610" y="-482.5" width="75" height="22.5" as="geometry" />
        </mxCell>
        <mxCell id="pS3guI-tFmk6sZYJYbPy-98" value="" style="endArrow=none;html=1;rounded=0;" parent="1" target="pS3guI-tFmk6sZYJYbPy-104" edge="1">
          <mxGeometry width="50" height="50" relative="1" as="geometry">
            <mxPoint x="610" y="-490" as="sourcePoint" />
            <mxPoint x="620" y="-600" as="targetPoint" />
          </mxGeometry>
        </mxCell>
        <mxCell id="pS3guI-tFmk6sZYJYbPy-101" value="" style="endArrow=none;html=1;rounded=0;entryX=0.5;entryY=1;entryDx=0;entryDy=0;" parent="1" target="pS3guI-tFmk6sZYJYbPy-108" edge="1">
          <mxGeometry width="50" height="50" relative="1" as="geometry">
            <mxPoint x="620" y="-490" as="sourcePoint" />
            <mxPoint x="670" y="-540" as="targetPoint" />
          </mxGeometry>
        </mxCell>
        <mxCell id="pS3guI-tFmk6sZYJYbPy-102" value="" style="endArrow=none;html=1;rounded=0;entryX=0;entryY=1;entryDx=0;entryDy=0;" parent="1" target="pS3guI-tFmk6sZYJYbPy-112" edge="1">
          <mxGeometry width="50" height="50" relative="1" as="geometry">
            <mxPoint x="650" y="-490" as="sourcePoint" />
            <mxPoint x="770" y="-570" as="targetPoint" />
          </mxGeometry>
        </mxCell>
        <mxCell id="pS3guI-tFmk6sZYJYbPy-103" value="" style="endArrow=none;html=1;rounded=0;" parent="1" edge="1">
          <mxGeometry width="50" height="50" relative="1" as="geometry">
            <mxPoint x="680" y="-490" as="sourcePoint" />
            <mxPoint x="780" y="-530" as="targetPoint" />
          </mxGeometry>
        </mxCell>
        <mxCell id="pS3guI-tFmk6sZYJYbPy-104" value="" style="ellipse;whiteSpace=wrap;html=1;" parent="1" vertex="1">
          <mxGeometry x="545" y="-640" width="120" height="40" as="geometry" />
        </mxCell>
        <mxCell id="pS3guI-tFmk6sZYJYbPy-105" value="&lt;u&gt;PharmacyID&lt;/u&gt;" style="text;html=1;strokeColor=none;fillColor=none;align=center;verticalAlign=middle;whiteSpace=wrap;rounded=0;" parent="1" vertex="1">
          <mxGeometry x="570" y="-635" width="60" height="30" as="geometry" />
        </mxCell>
        <mxCell id="pS3guI-tFmk6sZYJYbPy-108" value="" style="ellipse;whiteSpace=wrap;html=1;" parent="1" vertex="1">
          <mxGeometry x="665" y="-620" width="70" height="50" as="geometry" />
        </mxCell>
        <mxCell id="pS3guI-tFmk6sZYJYbPy-109" value="Pharmacy Name" style="text;html=1;strokeColor=none;fillColor=none;align=center;verticalAlign=middle;whiteSpace=wrap;rounded=0;" parent="1" vertex="1">
          <mxGeometry x="670" y="-610" width="60" height="30" as="geometry" />
        </mxCell>
        <mxCell id="pS3guI-tFmk6sZYJYbPy-112" value="" style="ellipse;whiteSpace=wrap;html=1;" parent="1" vertex="1">
          <mxGeometry x="750" y="-630" width="70" height="50" as="geometry" />
        </mxCell>
        <mxCell id="pS3guI-tFmk6sZYJYbPy-113" value="City" style="text;html=1;strokeColor=none;fillColor=none;align=center;verticalAlign=middle;whiteSpace=wrap;rounded=0;" parent="1" vertex="1">
          <mxGeometry x="760" y="-615" width="50" height="15" as="geometry" />
        </mxCell>
        <mxCell id="pS3guI-tFmk6sZYJYbPy-114" value="" style="ellipse;whiteSpace=wrap;html=1;" parent="1" vertex="1">
          <mxGeometry x="780" y="-552.5" width="120" height="60" as="geometry" />
        </mxCell>
        <mxCell id="pS3guI-tFmk6sZYJYbPy-115" value="Pharmacy Address" style="text;html=1;strokeColor=none;fillColor=none;align=center;verticalAlign=middle;whiteSpace=wrap;rounded=0;" parent="1" vertex="1">
          <mxGeometry x="810" y="-535" width="60" height="30" as="geometry" />
        </mxCell>
        <mxCell id="pS3guI-tFmk6sZYJYbPy-118" value="" style="endArrow=none;html=1;rounded=0;entryX=0;entryY=0.5;entryDx=0;entryDy=0;" parent="1" target="pS3guI-tFmk6sZYJYbPy-94" edge="1">
          <mxGeometry width="50" height="50" relative="1" as="geometry">
            <mxPoint x="515" y="-470" as="sourcePoint" />
            <mxPoint x="565" y="-520" as="targetPoint" />
          </mxGeometry>
        </mxCell>
        <mxCell id="pS3guI-tFmk6sZYJYbPy-121" value="" style="rhombus;whiteSpace=wrap;html=1;" parent="1" vertex="1">
          <mxGeometry x="890" y="-520" width="140" height="120" as="geometry" />
        </mxCell>
        <mxCell id="pS3guI-tFmk6sZYJYbPy-123" value="" style="rhombus;whiteSpace=wrap;html=1;" parent="1" vertex="1">
          <mxGeometry x="910" y="-500" width="100" height="80" as="geometry" />
        </mxCell>
        <mxCell id="pS3guI-tFmk6sZYJYbPy-124" value="Works in" style="text;html=1;strokeColor=none;fillColor=none;align=center;verticalAlign=middle;whiteSpace=wrap;rounded=0;" parent="1" vertex="1">
          <mxGeometry x="930" y="-475" width="60" height="30" as="geometry" />
        </mxCell>
        <mxCell id="pS3guI-tFmk6sZYJYbPy-127" value="" style="endArrow=classic;html=1;rounded=0;exitX=0;exitY=0.5;exitDx=0;exitDy=0;entryX=1;entryY=0.75;entryDx=0;entryDy=0;" parent="1" source="pS3guI-tFmk6sZYJYbPy-121" target="pS3guI-tFmk6sZYJYbPy-94" edge="1">
          <mxGeometry width="50" height="50" relative="1" as="geometry">
            <mxPoint x="750" y="-390" as="sourcePoint" />
            <mxPoint x="710" y="-460" as="targetPoint" />
          </mxGeometry>
        </mxCell>
        <mxCell id="pS3guI-tFmk6sZYJYbPy-129" value="" style="endArrow=none;html=1;rounded=0;" parent="1" edge="1">
          <mxGeometry width="50" height="50" relative="1" as="geometry">
            <mxPoint x="1030" y="-460" as="sourcePoint" />
            <mxPoint x="1130" y="-460" as="targetPoint" />
          </mxGeometry>
        </mxCell>
        <mxCell id="pS3guI-tFmk6sZYJYbPy-130" value="" style="rounded=0;whiteSpace=wrap;html=1;" parent="1" vertex="1">
          <mxGeometry x="1130" y="-490" width="120" height="60" as="geometry" />
        </mxCell>
        <mxCell id="pS3guI-tFmk6sZYJYbPy-131" value="" style="rounded=0;whiteSpace=wrap;html=1;" parent="1" vertex="1">
          <mxGeometry x="1140" y="-480" width="105" height="40" as="geometry" />
        </mxCell>
        <mxCell id="pS3guI-tFmk6sZYJYbPy-132" value="Pharmacist" style="text;html=1;strokeColor=none;fillColor=none;align=center;verticalAlign=middle;whiteSpace=wrap;rounded=0;" parent="1" vertex="1">
          <mxGeometry x="1150" y="-475" width="80" height="30" as="geometry" />
        </mxCell>
        <mxCell id="pS3guI-tFmk6sZYJYbPy-133" value="" style="endArrow=none;html=1;rounded=0;entryX=0.5;entryY=1;entryDx=0;entryDy=0;exitX=0.5;exitY=0;exitDx=0;exitDy=0;" parent="1" source="pS3guI-tFmk6sZYJYbPy-134" target="pS3guI-tFmk6sZYJYbPy-94" edge="1">
          <mxGeometry width="50" height="50" relative="1" as="geometry">
            <mxPoint x="670" y="-380" as="sourcePoint" />
            <mxPoint x="780" y="-380" as="targetPoint" />
          </mxGeometry>
        </mxCell>
        <mxCell id="pS3guI-tFmk6sZYJYbPy-134" value="" style="rhombus;whiteSpace=wrap;html=1;" parent="1" vertex="1">
          <mxGeometry x="597.5" y="-380" width="110" height="110" as="geometry" />
        </mxCell>
        <mxCell id="pS3guI-tFmk6sZYJYbPy-137" value="Has" style="text;html=1;strokeColor=none;fillColor=none;align=center;verticalAlign=middle;whiteSpace=wrap;rounded=0;" parent="1" vertex="1">
          <mxGeometry x="625" y="-340" width="60" height="30" as="geometry" />
        </mxCell>
        <mxCell id="pS3guI-tFmk6sZYJYbPy-138" value="" style="endArrow=none;html=1;rounded=0;" parent="1" edge="1">
          <mxGeometry width="50" height="50" relative="1" as="geometry">
            <mxPoint x="652" y="-200" as="sourcePoint" />
            <mxPoint x="652" y="-270" as="targetPoint" />
          </mxGeometry>
        </mxCell>
        <mxCell id="pS3guI-tFmk6sZYJYbPy-139" value="" style="rounded=0;whiteSpace=wrap;html=1;" parent="1" vertex="1">
          <mxGeometry x="587.5" y="-200" width="120" height="60" as="geometry" />
        </mxCell>
        <mxCell id="pS3guI-tFmk6sZYJYbPy-140" value="Inventory" style="text;html=1;strokeColor=none;fillColor=none;align=center;verticalAlign=middle;whiteSpace=wrap;rounded=0;" parent="1" vertex="1">
          <mxGeometry x="600" y="-190" width="100" height="40" as="geometry" />
        </mxCell>
        <mxCell id="pS3guI-tFmk6sZYJYbPy-141" value="" style="endArrow=none;html=1;rounded=0;" parent="1" edge="1">
          <mxGeometry width="50" height="50" relative="1" as="geometry">
            <mxPoint x="570" y="-90" as="sourcePoint" />
            <mxPoint x="620" y="-140" as="targetPoint" />
          </mxGeometry>
        </mxCell>
        <mxCell id="pS3guI-tFmk6sZYJYbPy-142" value="" style="endArrow=none;html=1;rounded=0;exitX=0.5;exitY=1;exitDx=0;exitDy=0;" parent="1" source="pS3guI-tFmk6sZYJYbPy-139" target="pS3guI-tFmk6sZYJYbPy-148" edge="1">
          <mxGeometry width="50" height="50" relative="1" as="geometry">
            <mxPoint x="670" y="-60" as="sourcePoint" />
            <mxPoint x="660" y="-140" as="targetPoint" />
          </mxGeometry>
        </mxCell>
        <mxCell id="pS3guI-tFmk6sZYJYbPy-144" value="" style="endArrow=none;html=1;rounded=0;exitX=0.75;exitY=1;exitDx=0;exitDy=0;" parent="1" source="pS3guI-tFmk6sZYJYbPy-139" target="pS3guI-tFmk6sZYJYbPy-150" edge="1">
          <mxGeometry width="50" height="50" relative="1" as="geometry">
            <mxPoint x="740" y="-100" as="sourcePoint" />
            <mxPoint x="685" y="-140" as="targetPoint" />
          </mxGeometry>
        </mxCell>
        <mxCell id="pS3guI-tFmk6sZYJYbPy-146" value="" style="ellipse;whiteSpace=wrap;html=1;" parent="1" vertex="1">
          <mxGeometry x="500" y="-90" width="120" height="50" as="geometry" />
        </mxCell>
        <mxCell id="pS3guI-tFmk6sZYJYbPy-147" value="InventoryID" style="text;html=1;strokeColor=none;fillColor=none;align=center;verticalAlign=middle;whiteSpace=wrap;rounded=0;" parent="1" vertex="1">
          <mxGeometry x="525" y="-80" width="60" height="30" as="geometry" />
        </mxCell>
        <mxCell id="pS3guI-tFmk6sZYJYbPy-148" value="" style="ellipse;whiteSpace=wrap;html=1;" parent="1" vertex="1">
          <mxGeometry x="625" y="-70" width="120" height="50" as="geometry" />
        </mxCell>
        <mxCell id="pS3guI-tFmk6sZYJYbPy-149" value="Quantity&lt;br&gt;" style="text;html=1;strokeColor=none;fillColor=none;align=center;verticalAlign=middle;whiteSpace=wrap;rounded=0;" parent="1" vertex="1">
          <mxGeometry x="655" y="-60" width="60" height="30" as="geometry" />
        </mxCell>
        <mxCell id="pS3guI-tFmk6sZYJYbPy-150" value="" style="ellipse;whiteSpace=wrap;html=1;" parent="1" vertex="1">
          <mxGeometry x="760" y="-70" width="130" height="50" as="geometry" />
        </mxCell>
        <mxCell id="pS3guI-tFmk6sZYJYbPy-151" value="TradeName&lt;br&gt;" style="text;html=1;strokeColor=none;fillColor=none;align=center;verticalAlign=middle;whiteSpace=wrap;rounded=0;" parent="1" vertex="1">
          <mxGeometry x="795" y="-60" width="60" height="30" as="geometry" />
        </mxCell>
        <mxCell id="pS3guI-tFmk6sZYJYbPy-152" value="" style="rounded=0;whiteSpace=wrap;html=1;" parent="1" vertex="1">
          <mxGeometry x="880" y="-370" width="120" height="60" as="geometry" />
        </mxCell>
        <mxCell id="pS3guI-tFmk6sZYJYbPy-153" value="Drug" style="text;html=1;strokeColor=none;fillColor=none;align=center;verticalAlign=middle;whiteSpace=wrap;rounded=0;" parent="1" vertex="1">
          <mxGeometry x="915" y="-360" width="60" height="30" as="geometry" />
        </mxCell>
        <mxCell id="pS3guI-tFmk6sZYJYbPy-154" value="" style="endArrow=none;html=1;rounded=0;entryX=0.5;entryY=1;entryDx=0;entryDy=0;" parent="1" target="pS3guI-tFmk6sZYJYbPy-152" edge="1">
          <mxGeometry width="50" height="50" relative="1" as="geometry">
            <mxPoint x="930" y="-190" as="sourcePoint" />
            <mxPoint x="920" y="-260" as="targetPoint" />
          </mxGeometry>
        </mxCell>
        <mxCell id="pS3guI-tFmk6sZYJYbPy-156" value="" style="endArrow=none;html=1;rounded=0;entryX=0.25;entryY=1;entryDx=0;entryDy=0;" parent="1" target="pS3guI-tFmk6sZYJYbPy-152" edge="1">
          <mxGeometry width="50" height="50" relative="1" as="geometry">
            <mxPoint x="870" y="-240" as="sourcePoint" />
            <mxPoint x="900" y="-260" as="targetPoint" />
          </mxGeometry>
        </mxCell>
        <mxCell id="pS3guI-tFmk6sZYJYbPy-157" value="" style="ellipse;whiteSpace=wrap;html=1;" parent="1" vertex="1">
          <mxGeometry x="790" y="-245" width="100" height="50" as="geometry" />
        </mxCell>
        <mxCell id="pS3guI-tFmk6sZYJYbPy-158" value="&lt;u&gt;TradeName&lt;/u&gt;" style="text;html=1;strokeColor=none;fillColor=none;align=center;verticalAlign=middle;whiteSpace=wrap;rounded=0;" parent="1" vertex="1">
          <mxGeometry x="815" y="-235" width="60" height="30" as="geometry" />
        </mxCell>
        <mxCell id="pS3guI-tFmk6sZYJYbPy-159" value="" style="ellipse;whiteSpace=wrap;html=1;" parent="1" vertex="1">
          <mxGeometry x="890" y="-220" width="100" height="50" as="geometry" />
        </mxCell>
        <mxCell id="pS3guI-tFmk6sZYJYbPy-160" value="Formula" style="text;html=1;strokeColor=none;fillColor=none;align=center;verticalAlign=middle;whiteSpace=wrap;rounded=0;" parent="1" vertex="1">
          <mxGeometry x="910" y="-210" width="60" height="30" as="geometry" />
        </mxCell>
        <mxCell id="pS3guI-tFmk6sZYJYbPy-161" value="" style="endArrow=none;html=1;rounded=0;exitX=-0.017;exitY=0.383;exitDx=0;exitDy=0;exitPerimeter=0;entryX=1;entryY=0.5;entryDx=0;entryDy=0;" parent="1" source="pS3guI-tFmk6sZYJYbPy-152" target="pS3guI-tFmk6sZYJYbPy-134" edge="1">
          <mxGeometry width="50" height="50" relative="1" as="geometry">
            <mxPoint x="820" y="-270" as="sourcePoint" />
            <mxPoint x="798.6111111111113" y="-271.3888888888889" as="targetPoint" />
            <Array as="points">
              <mxPoint x="810" y="-320" />
            </Array>
          </mxGeometry>
        </mxCell>
        <mxCell id="pS3guI-tFmk6sZYJYbPy-165" value="" style="endArrow=none;html=1;rounded=0;entryX=0;entryY=0.5;entryDx=0;entryDy=0;exitX=1;exitY=0.5;exitDx=0;exitDy=0;" parent="1" source="pS3guI-tFmk6sZYJYbPy-166" target="pS3guI-tFmk6sZYJYbPy-139" edge="1">
          <mxGeometry width="50" height="50" relative="1" as="geometry">
            <mxPoint x="470" y="-170" as="sourcePoint" />
            <mxPoint x="310" y="-490" as="targetPoint" />
          </mxGeometry>
        </mxCell>
        <mxCell id="pS3guI-tFmk6sZYJYbPy-166" value="" style="rhombus;whiteSpace=wrap;html=1;" parent="1" vertex="1">
          <mxGeometry x="350" y="-250" width="130" height="120" as="geometry" />
        </mxCell>
        <mxCell id="pS3guI-tFmk6sZYJYbPy-167" value="Order" style="text;html=1;strokeColor=none;fillColor=none;align=center;verticalAlign=middle;whiteSpace=wrap;rounded=0;" parent="1" vertex="1">
          <mxGeometry x="392.5" y="-205" width="60" height="30" as="geometry" />
        </mxCell>
        <mxCell id="pS3guI-tFmk6sZYJYbPy-168" value="" style="endArrow=none;html=1;rounded=0;exitX=0;exitY=0.5;exitDx=0;exitDy=0;entryX=1;entryY=0.5;entryDx=0;entryDy=0;" parent="1" source="pS3guI-tFmk6sZYJYbPy-166" target="pS3guI-tFmk6sZYJYbPy-170" edge="1">
          <mxGeometry width="50" height="50" relative="1" as="geometry">
            <mxPoint x="290" y="-120" as="sourcePoint" />
            <mxPoint x="240" y="-100" as="targetPoint" />
          </mxGeometry>
        </mxCell>
        <mxCell id="pS3guI-tFmk6sZYJYbPy-170" value="" style="rounded=0;whiteSpace=wrap;html=1;" parent="1" vertex="1">
          <mxGeometry x="120" y="-200" width="120" height="60" as="geometry" />
        </mxCell>
        <mxCell id="pS3guI-tFmk6sZYJYbPy-171" value="Order" style="text;html=1;strokeColor=none;fillColor=none;align=center;verticalAlign=middle;whiteSpace=wrap;rounded=0;" parent="1" vertex="1">
          <mxGeometry x="140" y="-190" width="90" height="30" as="geometry" />
        </mxCell>
        <mxCell id="pS3guI-tFmk6sZYJYbPy-172" value="" style="endArrow=none;html=1;rounded=0;entryX=0.25;entryY=1;entryDx=0;entryDy=0;" parent="1" target="pS3guI-tFmk6sZYJYbPy-170" edge="1">
          <mxGeometry width="50" height="50" relative="1" as="geometry">
            <mxPoint x="130" y="-80" as="sourcePoint" />
            <mxPoint x="137.5" y="-70" as="targetPoint" />
          </mxGeometry>
        </mxCell>
        <mxCell id="pS3guI-tFmk6sZYJYbPy-173" value="" style="endArrow=none;html=1;rounded=0;exitX=0;exitY=0;exitDx=0;exitDy=0;" parent="1" source="pS3guI-tFmk6sZYJYbPy-177" edge="1">
          <mxGeometry width="50" height="50" relative="1" as="geometry">
            <mxPoint x="180" y="-80" as="sourcePoint" />
            <mxPoint x="190" y="-140" as="targetPoint" />
          </mxGeometry>
        </mxCell>
        <mxCell id="pS3guI-tFmk6sZYJYbPy-176" value="" style="ellipse;whiteSpace=wrap;html=1;" parent="1" vertex="1">
          <mxGeometry x="60" y="-85" width="100" height="40" as="geometry" />
        </mxCell>
        <mxCell id="pS3guI-tFmk6sZYJYbPy-177" value="" style="ellipse;whiteSpace=wrap;html=1;" parent="1" vertex="1">
          <mxGeometry x="165" y="-85" width="85" height="50" as="geometry" />
        </mxCell>
        <mxCell id="pS3guI-tFmk6sZYJYbPy-178" value="" style="endArrow=none;html=1;rounded=0;exitX=1;exitY=1;exitDx=0;exitDy=0;" parent="1" source="pS3guI-tFmk6sZYJYbPy-170" target="pS3guI-tFmk6sZYJYbPy-179" edge="1">
          <mxGeometry width="50" height="50" relative="1" as="geometry">
            <mxPoint x="290" y="-100" as="sourcePoint" />
            <mxPoint x="230" y="-140" as="targetPoint" />
          </mxGeometry>
        </mxCell>
        <mxCell id="pS3guI-tFmk6sZYJYbPy-179" value="" style="ellipse;whiteSpace=wrap;html=1;" parent="1" vertex="1">
          <mxGeometry x="290" y="-100" width="120" height="40" as="geometry" />
        </mxCell>
        <mxCell id="pS3guI-tFmk6sZYJYbPy-181" value="" style="endArrow=none;html=1;rounded=0;entryX=0.75;entryY=1;entryDx=0;entryDy=0;" parent="1" target="pS3guI-tFmk6sZYJYbPy-170" edge="1">
          <mxGeometry width="50" height="50" relative="1" as="geometry">
            <mxPoint x="290" y="-40" as="sourcePoint" />
            <mxPoint x="340" y="-60" as="targetPoint" />
          </mxGeometry>
        </mxCell>
        <mxCell id="pS3guI-tFmk6sZYJYbPy-182" value="" style="ellipse;whiteSpace=wrap;html=1;" parent="1" vertex="1">
          <mxGeometry x="255" y="-45" width="120" height="65" as="geometry" />
        </mxCell>
        <mxCell id="pS3guI-tFmk6sZYJYbPy-184" value="" style="endArrow=none;html=1;rounded=0;exitX=0;exitY=1;exitDx=0;exitDy=0;" parent="1" source="pS3guI-tFmk6sZYJYbPy-170" target="pS3guI-tFmk6sZYJYbPy-185" edge="1">
          <mxGeometry width="50" height="50" relative="1" as="geometry">
            <mxPoint x="20" y="-90" as="sourcePoint" />
            <mxPoint x="130" y="-140" as="targetPoint" />
          </mxGeometry>
        </mxCell>
        <mxCell id="pS3guI-tFmk6sZYJYbPy-185" value="" style="ellipse;whiteSpace=wrap;html=1;" parent="1" vertex="1">
          <mxGeometry x="-70" y="-80" width="120" height="45" as="geometry" />
        </mxCell>
        <mxCell id="pS3guI-tFmk6sZYJYbPy-186" value="DrugID" style="text;html=1;strokeColor=none;fillColor=none;align=center;verticalAlign=middle;whiteSpace=wrap;rounded=0;" parent="1" vertex="1">
          <mxGeometry x="285" y="-30" width="60" height="40" as="geometry" />
        </mxCell>
        <mxCell id="pS3guI-tFmk6sZYJYbPy-187" value="Order.Quantity" style="text;html=1;strokeColor=none;fillColor=none;align=center;verticalAlign=middle;whiteSpace=wrap;rounded=0;" parent="1" vertex="1">
          <mxGeometry x="320" y="-95" width="60" height="30" as="geometry" />
        </mxCell>
        <mxCell id="pS3guI-tFmk6sZYJYbPy-188" value="&lt;u&gt;OrderID&lt;/u&gt;" style="text;html=1;strokeColor=none;fillColor=none;align=center;verticalAlign=middle;whiteSpace=wrap;rounded=0;" parent="1" vertex="1">
          <mxGeometry x="-50" y="-72.5" width="60" height="30" as="geometry" />
        </mxCell>
        <mxCell id="pS3guI-tFmk6sZYJYbPy-189" value="PharmacyID" style="text;html=1;strokeColor=none;fillColor=none;align=center;verticalAlign=middle;whiteSpace=wrap;rounded=0;" parent="1" vertex="1">
          <mxGeometry x="180" y="-75" width="60" height="30" as="geometry" />
        </mxCell>
        <mxCell id="pS3guI-tFmk6sZYJYbPy-190" value="SupplierID" style="text;html=1;strokeColor=none;fillColor=none;align=center;verticalAlign=middle;whiteSpace=wrap;rounded=0;" parent="1" vertex="1">
          <mxGeometry x="80" y="-80" width="60" height="30" as="geometry" />
        </mxCell>
        <mxCell id="3oWLM_c16b4enqOHihXa-1" value="" style="endArrow=none;html=1;rounded=0;exitX=0;exitY=0.5;exitDx=0;exitDy=0;entryX=1;entryY=0.5;entryDx=0;entryDy=0;" parent="1" source="pS3guI-tFmk6sZYJYbPy-14" target="3oWLM_c16b4enqOHihXa-2" edge="1">
          <mxGeometry width="50" height="50" relative="1" as="geometry">
            <mxPoint x="-170" y="-580" as="sourcePoint" />
            <mxPoint x="-20" y="-610" as="targetPoint" />
          </mxGeometry>
        </mxCell>
        <mxCell id="3oWLM_c16b4enqOHihXa-2" value="" style="rhombus;whiteSpace=wrap;html=1;" parent="1" vertex="1">
          <mxGeometry x="-350" y="-615" width="130" height="95" as="geometry" />
        </mxCell>
        <mxCell id="3oWLM_c16b4enqOHihXa-4" value="Insure" style="text;html=1;strokeColor=none;fillColor=none;align=center;verticalAlign=middle;whiteSpace=wrap;rounded=0;" parent="1" vertex="1">
          <mxGeometry x="-310" y="-582.5" width="60" height="30" as="geometry" />
        </mxCell>
        <mxCell id="3oWLM_c16b4enqOHihXa-5" value="" style="endArrow=none;html=1;rounded=0;exitX=0;exitY=0.5;exitDx=0;exitDy=0;" parent="1" source="PaaMk7QIoCMxK0tilOwz-1" target="3oWLM_c16b4enqOHihXa-6" edge="1">
          <mxGeometry width="50" height="50" relative="1" as="geometry">
            <mxPoint x="-410" y="-560" as="sourcePoint" />
            <mxPoint x="-460" y="-560" as="targetPoint" />
          </mxGeometry>
        </mxCell>
        <mxCell id="3oWLM_c16b4enqOHihXa-6" value="" style="rounded=0;whiteSpace=wrap;html=1;" parent="1" vertex="1">
          <mxGeometry x="-580" y="-597.5" width="120" height="60" as="geometry" />
        </mxCell>
        <mxCell id="3oWLM_c16b4enqOHihXa-7" value="Insurance" style="text;html=1;strokeColor=none;fillColor=none;align=center;verticalAlign=middle;whiteSpace=wrap;rounded=0;" parent="1" vertex="1">
          <mxGeometry x="-560" y="-582.5" width="60" height="30" as="geometry" />
        </mxCell>
        <mxCell id="3oWLM_c16b4enqOHihXa-8" value="" style="endArrow=none;html=1;rounded=0;exitX=0.106;exitY=1.031;exitDx=0;exitDy=0;exitPerimeter=0;" parent="1" source="3oWLM_c16b4enqOHihXa-6" target="3oWLM_c16b4enqOHihXa-12" edge="1">
          <mxGeometry width="50" height="50" relative="1" as="geometry">
            <mxPoint x="-600" y="-490" as="sourcePoint" />
            <mxPoint x="-550" y="-540" as="targetPoint" />
          </mxGeometry>
        </mxCell>
        <mxCell id="3oWLM_c16b4enqOHihXa-9" value="" style="endArrow=none;html=1;rounded=0;exitX=0.383;exitY=1.019;exitDx=0;exitDy=0;exitPerimeter=0;" parent="1" source="3oWLM_c16b4enqOHihXa-6" target="3oWLM_c16b4enqOHihXa-14" edge="1">
          <mxGeometry width="50" height="50" relative="1" as="geometry">
            <mxPoint x="-540" y="-440" as="sourcePoint" />
            <mxPoint x="-510" y="-537.5" as="targetPoint" />
          </mxGeometry>
        </mxCell>
        <mxCell id="3oWLM_c16b4enqOHihXa-10" value="" style="endArrow=none;html=1;rounded=0;entryX=0.75;entryY=1;entryDx=0;entryDy=0;exitX=0;exitY=0.5;exitDx=0;exitDy=0;" parent="1" source="3oWLM_c16b4enqOHihXa-19" target="3oWLM_c16b4enqOHihXa-6" edge="1">
          <mxGeometry width="50" height="50" relative="1" as="geometry">
            <mxPoint x="-380" y="-470" as="sourcePoint" />
            <mxPoint x="-480" y="-530" as="targetPoint" />
          </mxGeometry>
        </mxCell>
        <mxCell id="3oWLM_c16b4enqOHihXa-11" value="" style="endArrow=none;html=1;rounded=0;exitX=0.594;exitY=1.019;exitDx=0;exitDy=0;exitPerimeter=0;" parent="1" source="3oWLM_c16b4enqOHihXa-6" target="3oWLM_c16b4enqOHihXa-17" edge="1">
          <mxGeometry width="50" height="50" relative="1" as="geometry">
            <mxPoint x="-420" y="-440" as="sourcePoint" />
            <mxPoint x="-500" y="-535" as="targetPoint" />
          </mxGeometry>
        </mxCell>
        <mxCell id="3oWLM_c16b4enqOHihXa-12" value="" style="ellipse;whiteSpace=wrap;html=1;" parent="1" vertex="1">
          <mxGeometry x="-690" y="-485" width="120" height="45" as="geometry" />
        </mxCell>
        <mxCell id="3oWLM_c16b4enqOHihXa-13" value="&lt;u&gt;InsuranceNo&lt;/u&gt;" style="text;html=1;strokeColor=none;fillColor=none;align=center;verticalAlign=middle;whiteSpace=wrap;rounded=0;" parent="1" vertex="1">
          <mxGeometry x="-650" y="-475" width="60" height="30" as="geometry" />
        </mxCell>
        <mxCell id="3oWLM_c16b4enqOHihXa-14" value="" style="ellipse;whiteSpace=wrap;html=1;" parent="1" vertex="1">
          <mxGeometry x="-590" y="-460" width="120" height="60" as="geometry" />
        </mxCell>
        <mxCell id="3oWLM_c16b4enqOHihXa-15" value="Insurance company&lt;br&gt;" style="text;html=1;strokeColor=none;fillColor=none;align=center;verticalAlign=middle;whiteSpace=wrap;rounded=0;" parent="1" vertex="1">
          <mxGeometry x="-560" y="-445" width="60" height="30" as="geometry" />
        </mxCell>
        <mxCell id="3oWLM_c16b4enqOHihXa-17" value="" style="ellipse;whiteSpace=wrap;html=1;" parent="1" vertex="1">
          <mxGeometry x="-350" y="-435" width="80" height="50" as="geometry" />
        </mxCell>
        <mxCell id="3oWLM_c16b4enqOHihXa-18" value="SSN" style="text;html=1;strokeColor=none;fillColor=none;align=center;verticalAlign=middle;whiteSpace=wrap;rounded=0;" parent="1" vertex="1">
          <mxGeometry x="-340" y="-425" width="60" height="30" as="geometry" />
        </mxCell>
        <mxCell id="3oWLM_c16b4enqOHihXa-19" value="" style="ellipse;whiteSpace=wrap;html=1;" parent="1" vertex="1">
          <mxGeometry x="-365" y="-515" width="120" height="65" as="geometry" />
        </mxCell>
        <mxCell id="3oWLM_c16b4enqOHihXa-20" value="Percentage&lt;br&gt;Deductible" style="text;html=1;strokeColor=none;fillColor=none;align=center;verticalAlign=middle;whiteSpace=wrap;rounded=0;" parent="1" vertex="1">
          <mxGeometry x="-340" y="-500" width="60" height="30" as="geometry" />
        </mxCell>
        <mxCell id="3oWLM_c16b4enqOHihXa-22" value="" style="ellipse;whiteSpace=wrap;html=1;" parent="1" vertex="1">
          <mxGeometry x="50" y="-910" width="140" height="80" as="geometry" />
        </mxCell>
        <mxCell id="3oWLM_c16b4enqOHihXa-27" value="" style="ellipse;whiteSpace=wrap;html=1;" parent="1" vertex="1">
          <mxGeometry x="65" y="-900" width="115" height="57.5" as="geometry" />
        </mxCell>
        <mxCell id="3oWLM_c16b4enqOHihXa-28" value="DSSN" style="text;html=1;strokeColor=none;fillColor=none;align=center;verticalAlign=middle;whiteSpace=wrap;rounded=0;" parent="1" vertex="1">
          <mxGeometry x="90" y="-890" width="60" height="30" as="geometry" />
        </mxCell>
        <mxCell id="3oWLM_c16b4enqOHihXa-31" value="" style="endArrow=none;html=1;rounded=0;" parent="1" edge="1">
          <mxGeometry width="50" height="50" relative="1" as="geometry">
            <mxPoint x="1110" y="-380" as="sourcePoint" />
            <mxPoint x="1160" y="-430" as="targetPoint" />
          </mxGeometry>
        </mxCell>
        <mxCell id="3oWLM_c16b4enqOHihXa-32" value="" style="endArrow=none;html=1;rounded=0;" parent="1" edge="1">
          <mxGeometry width="50" height="50" relative="1" as="geometry">
            <mxPoint x="1230" y="-380" as="sourcePoint" />
            <mxPoint x="1200" y="-430" as="targetPoint" />
          </mxGeometry>
        </mxCell>
        <mxCell id="3oWLM_c16b4enqOHihXa-34" value="" style="ellipse;whiteSpace=wrap;html=1;" parent="1" vertex="1">
          <mxGeometry x="1050" y="-380" width="120" height="50" as="geometry" />
        </mxCell>
        <mxCell id="3oWLM_c16b4enqOHihXa-35" value="" style="ellipse;whiteSpace=wrap;html=1;" parent="1" vertex="1">
          <mxGeometry x="1200" y="-385" width="120" height="65" as="geometry" />
        </mxCell>
        <mxCell id="3oWLM_c16b4enqOHihXa-36" value="&lt;u&gt;PharmacistSSN&lt;/u&gt;" style="text;html=1;strokeColor=none;fillColor=none;align=center;verticalAlign=middle;whiteSpace=wrap;rounded=0;" parent="1" vertex="1">
          <mxGeometry x="1080" y="-375" width="50" height="30" as="geometry" />
        </mxCell>
        <mxCell id="3oWLM_c16b4enqOHihXa-37" value="PharmacistName" style="text;html=1;strokeColor=none;fillColor=none;align=center;verticalAlign=middle;whiteSpace=wrap;rounded=0;" parent="1" vertex="1">
          <mxGeometry x="1220" y="-367.5" width="80" height="30" as="geometry" />
        </mxCell>
        <mxCell id="vvdEDq1yxeeyfwB21JRT-2" value="" style="endArrow=none;html=1;rounded=0;" parent="1" edge="1">
          <mxGeometry width="50" height="50" relative="1" as="geometry">
            <mxPoint x="80" y="-640" as="sourcePoint" />
            <mxPoint x="10" y="-894" as="targetPoint" />
          </mxGeometry>
        </mxCell>
        <mxCell id="vvdEDq1yxeeyfwB21JRT-3" value="" style="ellipse;whiteSpace=wrap;html=1;" parent="1" vertex="1">
          <mxGeometry x="-50" y="-930" width="120" height="40" as="geometry" />
        </mxCell>
        <mxCell id="vvdEDq1yxeeyfwB21JRT-4" value="Text" style="text;html=1;strokeColor=none;fillColor=none;align=center;verticalAlign=middle;whiteSpace=wrap;rounded=0;" parent="1" vertex="1">
          <mxGeometry x="120" y="-940" width="60" height="30" as="geometry" />
        </mxCell>
        <mxCell id="vvdEDq1yxeeyfwB21JRT-5" value="Address" style="text;html=1;strokeColor=none;fillColor=none;align=center;verticalAlign=middle;whiteSpace=wrap;rounded=0;" parent="1" vertex="1">
          <mxGeometry x="-20" y="-925" width="60" height="30" as="geometry" />
        </mxCell>
        <mxCell id="vvdEDq1yxeeyfwB21JRT-6" value="" style="endArrow=none;html=1;rounded=0;" parent="1" target="vvdEDq1yxeeyfwB21JRT-7" edge="1">
          <mxGeometry width="50" height="50" relative="1" as="geometry">
            <mxPoint x="90" y="-300" as="sourcePoint" />
            <mxPoint x="87.5" y="-300" as="targetPoint" />
          </mxGeometry>
        </mxCell>
        <mxCell id="vvdEDq1yxeeyfwB21JRT-7" value="" style="ellipse;whiteSpace=wrap;html=1;" parent="1" vertex="1">
          <mxGeometry x="130" y="-290" width="90" height="50" as="geometry" />
        </mxCell>
        <mxCell id="vvdEDq1yxeeyfwB21JRT-8" style="edgeStyle=orthogonalEdgeStyle;rounded=0;orthogonalLoop=1;jettySize=auto;html=1;exitX=0.5;exitY=1;exitDx=0;exitDy=0;" parent="1" source="vvdEDq1yxeeyfwB21JRT-7" target="vvdEDq1yxeeyfwB21JRT-7" edge="1">
          <mxGeometry relative="1" as="geometry" />
        </mxCell>
        <mxCell id="vvdEDq1yxeeyfwB21JRT-9" value="Speciality" style="text;html=1;strokeColor=none;fillColor=none;align=center;verticalAlign=middle;whiteSpace=wrap;rounded=0;" parent="1" vertex="1">
          <mxGeometry x="145" y="-280" width="60" height="30" as="geometry" />
        </mxCell>
        <mxCell id="vvdEDq1yxeeyfwB21JRT-10" value="" style="endArrow=none;html=1;rounded=0;exitX=0.411;exitY=0.994;exitDx=0;exitDy=0;exitPerimeter=0;" parent="1" source="pS3guI-tFmk6sZYJYbPy-38" target="vvdEDq1yxeeyfwB21JRT-11" edge="1">
          <mxGeometry width="50" height="50" relative="1" as="geometry">
            <mxPoint x="10" y="-220" as="sourcePoint" />
            <mxPoint x="50" y="-300" as="targetPoint" />
          </mxGeometry>
        </mxCell>
        <mxCell id="vvdEDq1yxeeyfwB21JRT-11" value="" style="ellipse;whiteSpace=wrap;html=1;" parent="1" vertex="1">
          <mxGeometry x="-30" y="-220" width="80" height="40" as="geometry" />
        </mxCell>
        <mxCell id="vvdEDq1yxeeyfwB21JRT-12" value="Year of Experience" style="text;html=1;strokeColor=none;fillColor=none;align=center;verticalAlign=middle;whiteSpace=wrap;rounded=0;" parent="1" vertex="1">
          <mxGeometry x="-20" y="-215" width="60" height="30" as="geometry" />
        </mxCell>
        <mxCell id="vvdEDq1yxeeyfwB21JRT-14" value="" style="endArrow=none;html=1;rounded=0;exitX=0.5;exitY=1;exitDx=0;exitDy=0;" parent="1" source="3oWLM_c16b4enqOHihXa-6" target="vvdEDq1yxeeyfwB21JRT-15" edge="1">
          <mxGeometry width="50" height="50" relative="1" as="geometry">
            <mxPoint x="-430" y="-420" as="sourcePoint" />
            <mxPoint x="-520" y="-537.5" as="targetPoint" />
          </mxGeometry>
        </mxCell>
        <mxCell id="vvdEDq1yxeeyfwB21JRT-15" value="" style="ellipse;whiteSpace=wrap;html=1;" parent="1" vertex="1">
          <mxGeometry x="-470" y="-400" width="120" height="50" as="geometry" />
        </mxCell>
        <mxCell id="vvdEDq1yxeeyfwB21JRT-16" value="PName" style="text;html=1;strokeColor=none;fillColor=none;align=center;verticalAlign=middle;whiteSpace=wrap;rounded=0;" parent="1" vertex="1">
          <mxGeometry x="-440" y="-390" width="60" height="30" as="geometry" />
        </mxCell>
        <mxCell id="vvdEDq1yxeeyfwB21JRT-18" value="" style="endArrow=none;html=1;rounded=0;exitX=0.906;exitY=0.983;exitDx=0;exitDy=0;exitPerimeter=0;" parent="1" source="pS3guI-tFmk6sZYJYbPy-152" target="vvdEDq1yxeeyfwB21JRT-22" edge="1">
          <mxGeometry width="50" height="50" relative="1" as="geometry">
            <mxPoint x="1120" y="-210" as="sourcePoint" />
            <mxPoint x="990" y="-260" as="targetPoint" />
          </mxGeometry>
        </mxCell>
        <mxCell id="vvdEDq1yxeeyfwB21JRT-19" value="" style="endArrow=none;html=1;rounded=0;entryX=0.75;entryY=1;entryDx=0;entryDy=0;" parent="1" target="pS3guI-tFmk6sZYJYbPy-152" edge="1">
          <mxGeometry width="50" height="50" relative="1" as="geometry">
            <mxPoint x="1030" y="-180" as="sourcePoint" />
            <mxPoint x="960" y="-270" as="targetPoint" />
          </mxGeometry>
        </mxCell>
        <mxCell id="vvdEDq1yxeeyfwB21JRT-20" value="" style="ellipse;whiteSpace=wrap;html=1;" parent="1" vertex="1">
          <mxGeometry x="1000" y="-185" width="100" height="55" as="geometry" />
        </mxCell>
        <mxCell id="vvdEDq1yxeeyfwB21JRT-21" value="CoName" style="text;html=1;strokeColor=none;fillColor=none;align=center;verticalAlign=middle;whiteSpace=wrap;rounded=0;" parent="1" vertex="1">
          <mxGeometry x="1020" y="-170" width="60" height="30" as="geometry" />
        </mxCell>
        <mxCell id="vvdEDq1yxeeyfwB21JRT-22" value="" style="ellipse;whiteSpace=wrap;html=1;" parent="1" vertex="1">
          <mxGeometry x="1110" y="-190" width="120" height="50" as="geometry" />
        </mxCell>
        <mxCell id="vvdEDq1yxeeyfwB21JRT-23" value="CompanyPhoneNO" style="text;html=1;strokeColor=none;fillColor=none;align=center;verticalAlign=middle;whiteSpace=wrap;rounded=0;" parent="1" vertex="1">
          <mxGeometry x="1140" y="-180" width="60" height="30" as="geometry" />
        </mxCell>
        <mxCell id="vvdEDq1yxeeyfwB21JRT-26" value="" style="endArrow=none;html=1;rounded=0;" parent="1" edge="1">
          <mxGeometry width="50" height="50" relative="1" as="geometry">
            <mxPoint x="670" y="-490" as="sourcePoint" />
            <mxPoint x="860" y="-590" as="targetPoint" />
          </mxGeometry>
        </mxCell>
        <mxCell id="vvdEDq1yxeeyfwB21JRT-27" value="" style="ellipse;whiteSpace=wrap;html=1;" parent="1" vertex="1">
          <mxGeometry x="840" y="-627.5" width="130" height="55" as="geometry" />
        </mxCell>
        <mxCell id="vvdEDq1yxeeyfwB21JRT-28" value="PharmacyPhoneNO&lt;br&gt;" style="text;html=1;strokeColor=none;fillColor=none;align=center;verticalAlign=middle;whiteSpace=wrap;rounded=0;" parent="1" vertex="1">
          <mxGeometry x="870" y="-612.5" width="60" height="30" as="geometry" />
        </mxCell>
        <mxCell id="vvdEDq1yxeeyfwB21JRT-29" value="" style="endArrow=none;html=1;rounded=0;exitX=0.75;exitY=1;exitDx=0;exitDy=0;" parent="1" source="pS3guI-tFmk6sZYJYbPy-130" target="vvdEDq1yxeeyfwB21JRT-30" edge="1">
          <mxGeometry width="50" height="50" relative="1" as="geometry">
            <mxPoint x="1350" y="-400" as="sourcePoint" />
            <mxPoint x="1230" y="-430" as="targetPoint" />
          </mxGeometry>
        </mxCell>
        <mxCell id="vvdEDq1yxeeyfwB21JRT-30" value="" style="ellipse;whiteSpace=wrap;html=1;" parent="1" vertex="1">
          <mxGeometry x="1340" y="-347.5" width="120" height="45" as="geometry" />
        </mxCell>
        <mxCell id="vvdEDq1yxeeyfwB21JRT-31" value="PharmacyPhoneNo" style="text;html=1;strokeColor=none;fillColor=none;align=center;verticalAlign=middle;whiteSpace=wrap;rounded=0;" parent="1" vertex="1">
          <mxGeometry x="1360" y="-337.5" width="80" height="30" as="geometry" />
        </mxCell>
        <mxCell id="vvdEDq1yxeeyfwB21JRT-32" value="" style="endArrow=none;html=1;rounded=0;" parent="1" edge="1">
          <mxGeometry width="50" height="50" relative="1" as="geometry">
            <mxPoint x="1330" y="-410" as="sourcePoint" />
            <mxPoint x="1240" y="-430" as="targetPoint" />
          </mxGeometry>
        </mxCell>
        <mxCell id="vvdEDq1yxeeyfwB21JRT-33" value="" style="ellipse;whiteSpace=wrap;html=1;" parent="1" vertex="1">
          <mxGeometry x="1320" y="-430" width="120" height="60" as="geometry" />
        </mxCell>
        <mxCell id="vvdEDq1yxeeyfwB21JRT-34" value="PharmacyID" style="text;html=1;strokeColor=none;fillColor=none;align=center;verticalAlign=middle;whiteSpace=wrap;rounded=0;" parent="1" vertex="1">
          <mxGeometry x="1330" y="-415" width="80" height="30" as="geometry" />
        </mxCell>
        <mxCell id="vvdEDq1yxeeyfwB21JRT-35" value="" style="endArrow=none;html=1;rounded=0;" parent="1" edge="1">
          <mxGeometry width="50" height="50" relative="1" as="geometry">
            <mxPoint x="840" y="-100" as="sourcePoint" />
            <mxPoint x="700" y="-140" as="targetPoint" />
          </mxGeometry>
        </mxCell>
        <mxCell id="vvdEDq1yxeeyfwB21JRT-36" value="" style="ellipse;whiteSpace=wrap;html=1;" parent="1" vertex="1">
          <mxGeometry x="830" y="-122.5" width="120" height="50" as="geometry" />
        </mxCell>
        <mxCell id="vvdEDq1yxeeyfwB21JRT-37" value="Formula" style="text;html=1;strokeColor=none;fillColor=none;align=center;verticalAlign=middle;whiteSpace=wrap;rounded=0;" parent="1" vertex="1">
          <mxGeometry x="855" y="-112.5" width="60" height="30" as="geometry" />
        </mxCell>
        <mxCell id="vvdEDq1yxeeyfwB21JRT-40" value="&lt;span style=&quot;margin: 0px; padding: 0px; user-select: text; -webkit-user-drag: none; -webkit-tap-highlight-color: transparent; font-size: 12pt; text-align: left; background-color: rgb(255, 255, 255); line-height: 19.425px; font-family: &amp;quot;Times New Roman&amp;quot;, &amp;quot;Times New Roman_EmbeddedFont&amp;quot;, &amp;quot;Times New Roman_MSFontService&amp;quot;, serif; font-variant-ligatures: none !important;&quot; class=&quot;TextRun SCXW150567799 BCX0&quot; lang=&quot;EN-US&quot; data-contrast=&quot;auto&quot;&gt;&lt;/span&gt;&lt;span style=&quot;margin: 0px; padding: 0px; user-select: text; -webkit-user-drag: none; -webkit-tap-highlight-color: transparent; font-size: 12pt; text-align: left; background-color: rgb(255, 255, 255); line-height: 19.425px; font-family: &amp;quot;Times New Roman&amp;quot;, &amp;quot;Times New Roman_EmbeddedFont&amp;quot;, &amp;quot;Times New Roman_MSFontService&amp;quot;, serif;&quot; data-ccp-props=&quot;{&amp;quot;201341983&amp;quot;:0,&amp;quot;335559739&amp;quot;:160,&amp;quot;335559740&amp;quot;:259}&quot; class=&quot;EOP SCXW150567799 BCX0&quot;&gt;&amp;nbsp;&lt;/span&gt;&lt;span style=&quot;margin: 0px; padding: 0px; user-select: text; -webkit-user-drag: none; -webkit-tap-highlight-color: transparent; font-size: 12pt; text-align: left; background-color: rgb(255, 255, 255); line-height: 19.425px; font-family: &amp;quot;Times New Roman&amp;quot;, &amp;quot;Times New Roman_EmbeddedFont&amp;quot;, &amp;quot;Times New Roman_MSFontService&amp;quot;, serif; font-variant-ligatures: none !important;&quot; class=&quot;TextRun SCXW150567799 BCX0&quot; lang=&quot;EN-US&quot; data-contrast=&quot;auto&quot;&gt;&lt;/span&gt;&lt;span style=&quot;margin: 0px; padding: 0px; user-select: text; -webkit-user-drag: none; -webkit-tap-highlight-color: transparent; font-size: 12pt; text-align: left; background-color: rgb(255, 255, 255); line-height: 19.425px; font-family: &amp;quot;Times New Roman&amp;quot;, &amp;quot;Times New Roman_EmbeddedFont&amp;quot;, &amp;quot;Times New Roman_MSFontService&amp;quot;, serif;&quot; data-ccp-props=&quot;{&amp;quot;201341983&amp;quot;:0,&amp;quot;335559739&amp;quot;:160,&amp;quot;335559740&amp;quot;:259}&quot; class=&quot;EOP SCXW150567799 BCX0&quot;&gt;&amp;nbsp;&lt;/span&gt;&lt;span style=&quot;margin: 0px; padding: 0px; user-select: text; -webkit-user-drag: none; -webkit-tap-highlight-color: transparent; font-size: 12pt; text-align: left; background-color: rgb(255, 255, 255); line-height: 19.425px; font-family: &amp;quot;Times New Roman&amp;quot;, &amp;quot;Times New Roman_EmbeddedFont&amp;quot;, &amp;quot;Times New Roman_MSFontService&amp;quot;, serif; font-variant-ligatures: none !important;&quot; class=&quot;TextRun SCXW150567799 BCX0&quot; lang=&quot;EN-US&quot; data-contrast=&quot;auto&quot;&gt;&lt;/span&gt;&lt;span style=&quot;margin: 0px; padding: 0px; user-select: text; -webkit-user-drag: none; -webkit-tap-highlight-color: transparent; font-size: 12pt; text-align: left; background-color: rgb(255, 255, 255); line-height: 19.425px; font-family: &amp;quot;Times New Roman&amp;quot;, &amp;quot;Times New Roman_EmbeddedFont&amp;quot;, &amp;quot;Times New Roman_MSFontService&amp;quot;, serif;&quot; data-ccp-props=&quot;{&amp;quot;201341983&amp;quot;:0,&amp;quot;335559739&amp;quot;:160,&amp;quot;335559740&amp;quot;:259}&quot; class=&quot;EOP SCXW150567799 BCX0&quot;&gt;&amp;nbsp;&lt;/span&gt;&lt;span style=&quot;margin: 0px; padding: 0px; user-select: text; -webkit-user-drag: none; -webkit-tap-highlight-color: transparent; font-size: 12pt; text-align: left; background-color: rgb(255, 255, 255); line-height: 19.425px; font-family: &amp;quot;Times New Roman&amp;quot;, &amp;quot;Times New Roman_EmbeddedFont&amp;quot;, &amp;quot;Times New Roman_MSFontService&amp;quot;, serif; font-variant-ligatures: none !important;&quot; class=&quot;TextRun SCXW150567799 BCX0&quot; lang=&quot;EN-US&quot; data-contrast=&quot;auto&quot;&gt;&lt;/span&gt;&lt;span style=&quot;margin: 0px; padding: 0px; user-select: text; -webkit-user-drag: none; -webkit-tap-highlight-color: transparent; font-size: 12pt; text-align: left; background-color: rgb(255, 255, 255); line-height: 19.425px; font-family: &amp;quot;Times New Roman&amp;quot;, &amp;quot;Times New Roman_EmbeddedFont&amp;quot;, &amp;quot;Times New Roman_MSFontService&amp;quot;, serif;&quot; data-ccp-props=&quot;{&amp;quot;201341983&amp;quot;:0,&amp;quot;335559739&amp;quot;:160,&amp;quot;335559740&amp;quot;:259}&quot; class=&quot;EOP SCXW150567799 BCX0&quot;&gt;&amp;nbsp;&lt;/span&gt;" style="rounded=0;whiteSpace=wrap;html=1;" parent="1" vertex="1">
          <mxGeometry x="1370" y="-280" width="160" height="60" as="geometry" />
        </mxCell>
        <mxCell id="vvdEDq1yxeeyfwB21JRT-41" value="Pharmaceutical_Company&lt;br&gt;" style="text;html=1;strokeColor=none;fillColor=none;align=center;verticalAlign=middle;whiteSpace=wrap;rounded=0;" parent="1" vertex="1">
          <mxGeometry x="1400" y="-270" width="100" height="30" as="geometry" />
        </mxCell>
        <mxCell id="vvdEDq1yxeeyfwB21JRT-42" value="" style="endArrow=none;html=1;rounded=0;exitX=1;exitY=0.5;exitDx=0;exitDy=0;" parent="1" source="pS3guI-tFmk6sZYJYbPy-152" target="vvdEDq1yxeeyfwB21JRT-44" edge="1">
          <mxGeometry width="50" height="50" relative="1" as="geometry">
            <mxPoint x="1000" y="-287.5" as="sourcePoint" />
            <mxPoint x="1120" y="-290" as="targetPoint" />
          </mxGeometry>
        </mxCell>
        <mxCell id="vvdEDq1yxeeyfwB21JRT-44" value="From" style="rhombus;whiteSpace=wrap;html=1;" parent="1" vertex="1">
          <mxGeometry x="1130" y="-330" width="80" height="80" as="geometry" />
        </mxCell>
        <mxCell id="vvdEDq1yxeeyfwB21JRT-45" value="" style="endArrow=none;html=1;rounded=0;entryX=0;entryY=0.25;entryDx=0;entryDy=0;exitX=1;exitY=0.5;exitDx=0;exitDy=0;" parent="1" source="vvdEDq1yxeeyfwB21JRT-44" target="vvdEDq1yxeeyfwB21JRT-40" edge="1">
          <mxGeometry width="50" height="50" relative="1" as="geometry">
            <mxPoint x="1210" y="-280" as="sourcePoint" />
            <mxPoint x="1260" y="-330" as="targetPoint" />
          </mxGeometry>
        </mxCell>
        <mxCell id="vvdEDq1yxeeyfwB21JRT-46" value="" style="endArrow=none;html=1;rounded=0;entryX=0.25;entryY=1;entryDx=0;entryDy=0;" parent="1" target="vvdEDq1yxeeyfwB21JRT-40" edge="1">
          <mxGeometry width="50" height="50" relative="1" as="geometry">
            <mxPoint x="1360" y="-165" as="sourcePoint" />
            <mxPoint x="1410" y="-215" as="targetPoint" />
          </mxGeometry>
        </mxCell>
        <mxCell id="vvdEDq1yxeeyfwB21JRT-47" value="" style="endArrow=none;html=1;rounded=0;exitX=0.75;exitY=1;exitDx=0;exitDy=0;" parent="1" source="vvdEDq1yxeeyfwB21JRT-40" target="vvdEDq1yxeeyfwB21JRT-48" edge="1">
          <mxGeometry width="50" height="50" relative="1" as="geometry">
            <mxPoint x="1510" y="-170" as="sourcePoint" />
            <mxPoint x="1480" y="-220" as="targetPoint" />
          </mxGeometry>
        </mxCell>
        <mxCell id="vvdEDq1yxeeyfwB21JRT-48" value="&lt;u&gt;CoPhoneNO&lt;/u&gt;" style="ellipse;whiteSpace=wrap;html=1;" parent="1" vertex="1">
          <mxGeometry x="1460" y="-170" width="120" height="60" as="geometry" />
        </mxCell>
        <mxCell id="vvdEDq1yxeeyfwB21JRT-49" value="CoName" style="ellipse;whiteSpace=wrap;html=1;" parent="1" vertex="1">
          <mxGeometry x="1290" y="-175" width="120" height="45" as="geometry" />
        </mxCell>
        <mxCell id="vvdEDq1yxeeyfwB21JRT-50" value="" style="endArrow=none;html=1;rounded=0;" parent="1" target="vvdEDq1yxeeyfwB21JRT-51" edge="1">
          <mxGeometry width="50" height="50" relative="1" as="geometry">
            <mxPoint x="1530" y="-240" as="sourcePoint" />
            <mxPoint x="1610" y="-240" as="targetPoint" />
          </mxGeometry>
        </mxCell>
        <mxCell id="vvdEDq1yxeeyfwB21JRT-51" value="Has" style="rhombus;whiteSpace=wrap;html=1;" parent="1" vertex="1">
          <mxGeometry x="1640" y="-295" width="80" height="80" as="geometry" />
        </mxCell>
        <mxCell id="vvdEDq1yxeeyfwB21JRT-52" value="" style="endArrow=none;html=1;rounded=0;exitX=1;exitY=0.5;exitDx=0;exitDy=0;" parent="1" source="vvdEDq1yxeeyfwB21JRT-51" edge="1">
          <mxGeometry width="50" height="50" relative="1" as="geometry">
            <mxPoint x="1690" y="-220" as="sourcePoint" />
            <mxPoint x="1780" y="-220" as="targetPoint" />
          </mxGeometry>
        </mxCell>
        <mxCell id="vvdEDq1yxeeyfwB21JRT-53" value="Contract" style="rounded=0;whiteSpace=wrap;html=1;" parent="1" vertex="1">
          <mxGeometry x="1780" y="-240" width="120" height="60" as="geometry" />
        </mxCell>
        <mxCell id="vvdEDq1yxeeyfwB21JRT-54" value="" style="endArrow=none;html=1;rounded=0;exitX=0.5;exitY=1;exitDx=0;exitDy=0;" parent="1" source="vvdEDq1yxeeyfwB21JRT-53" target="vvdEDq1yxeeyfwB21JRT-61" edge="1">
          <mxGeometry width="50" height="50" relative="1" as="geometry">
            <mxPoint x="1710" y="-60" as="sourcePoint" />
            <mxPoint x="1840" y="-182.5" as="targetPoint" />
          </mxGeometry>
        </mxCell>
        <mxCell id="vvdEDq1yxeeyfwB21JRT-55" value="" style="endArrow=none;html=1;rounded=0;" parent="1" target="vvdEDq1yxeeyfwB21JRT-60" edge="1">
          <mxGeometry width="50" height="50" relative="1" as="geometry">
            <mxPoint x="1860" y="-180" as="sourcePoint" />
            <mxPoint x="1870" y="-180" as="targetPoint" />
          </mxGeometry>
        </mxCell>
        <mxCell id="vvdEDq1yxeeyfwB21JRT-56" value="" style="endArrow=none;html=1;rounded=0;" parent="1" edge="1">
          <mxGeometry width="50" height="50" relative="1" as="geometry">
            <mxPoint x="1890" y="-110" as="sourcePoint" />
            <mxPoint x="1880" y="-182.5" as="targetPoint" />
          </mxGeometry>
        </mxCell>
        <mxCell id="vvdEDq1yxeeyfwB21JRT-58" value="&lt;u&gt;ContractID&lt;/u&gt;" style="ellipse;whiteSpace=wrap;html=1;" parent="1" vertex="1">
          <mxGeometry x="1840" y="-112.5" width="120" height="42.5" as="geometry" />
        </mxCell>
        <mxCell id="vvdEDq1yxeeyfwB21JRT-59" style="edgeStyle=orthogonalEdgeStyle;rounded=0;orthogonalLoop=1;jettySize=auto;html=1;exitX=0.5;exitY=1;exitDx=0;exitDy=0;" parent="1" source="vvdEDq1yxeeyfwB21JRT-58" target="vvdEDq1yxeeyfwB21JRT-58" edge="1">
          <mxGeometry relative="1" as="geometry" />
        </mxCell>
        <mxCell id="vvdEDq1yxeeyfwB21JRT-60" value="CoPhoneNo" style="ellipse;whiteSpace=wrap;html=1;" parent="1" vertex="1">
          <mxGeometry x="1740" y="-52.5" width="120" height="42.5" as="geometry" />
        </mxCell>
        <mxCell id="vvdEDq1yxeeyfwB21JRT-61" value="SupervisorID" style="ellipse;whiteSpace=wrap;html=1;" parent="1" vertex="1">
          <mxGeometry x="1620" y="-10" width="120" height="50" as="geometry" />
        </mxCell>
        <mxCell id="vvdEDq1yxeeyfwB21JRT-62" value="" style="endArrow=none;html=1;rounded=0;" parent="1" target="vvdEDq1yxeeyfwB21JRT-63" edge="1">
          <mxGeometry width="50" height="50" relative="1" as="geometry">
            <mxPoint x="1830" y="-180" as="sourcePoint" />
            <mxPoint x="1825" y="-180" as="targetPoint" />
          </mxGeometry>
        </mxCell>
        <mxCell id="vvdEDq1yxeeyfwB21JRT-63" value="PharmacyPhoneNo" style="ellipse;whiteSpace=wrap;html=1;" parent="1" vertex="1">
          <mxGeometry x="1570" y="-40" width="120" height="27.5" as="geometry" />
        </mxCell>
        <mxCell id="vvdEDq1yxeeyfwB21JRT-64" value="" style="endArrow=none;html=1;rounded=0;exitX=0.2;exitY=0.983;exitDx=0;exitDy=0;exitPerimeter=0;" parent="1" source="vvdEDq1yxeeyfwB21JRT-53" target="vvdEDq1yxeeyfwB21JRT-65" edge="1">
          <mxGeometry width="50" height="50" relative="1" as="geometry">
            <mxPoint x="1710" y="-110" as="sourcePoint" />
            <mxPoint x="1810" y="-180" as="targetPoint" />
          </mxGeometry>
        </mxCell>
        <mxCell id="vvdEDq1yxeeyfwB21JRT-65" value="StartDate" style="ellipse;whiteSpace=wrap;html=1;" parent="1" vertex="1">
          <mxGeometry x="1560" y="-95" width="120" height="30" as="geometry" />
        </mxCell>
        <mxCell id="vvdEDq1yxeeyfwB21JRT-66" value="" style="endArrow=none;html=1;rounded=0;" parent="1" edge="1">
          <mxGeometry width="50" height="50" relative="1" as="geometry">
            <mxPoint x="1940" y="-140" as="sourcePoint" />
            <mxPoint x="1890" y="-180" as="targetPoint" />
          </mxGeometry>
        </mxCell>
        <mxCell id="vvdEDq1yxeeyfwB21JRT-67" value="EndDate" style="ellipse;whiteSpace=wrap;html=1;" parent="1" vertex="1">
          <mxGeometry x="1930" y="-150" width="120" height="45" as="geometry" />
        </mxCell>
        <mxCell id="vvdEDq1yxeeyfwB21JRT-68" value="" style="endArrow=none;html=1;rounded=0;exitX=1;exitY=1;exitDx=0;exitDy=0;" parent="1" source="vvdEDq1yxeeyfwB21JRT-53" target="vvdEDq1yxeeyfwB21JRT-69" edge="1">
          <mxGeometry width="50" height="50" relative="1" as="geometry">
            <mxPoint x="1980" y="-180" as="sourcePoint" />
            <mxPoint x="1900" y="-180" as="targetPoint" />
          </mxGeometry>
        </mxCell>
        <mxCell id="vvdEDq1yxeeyfwB21JRT-69" value="Text of the Contract" style="ellipse;whiteSpace=wrap;html=1;" parent="1" vertex="1">
          <mxGeometry x="2020" y="-220" width="120" height="80" as="geometry" />
        </mxCell>
        <mxCell id="vvdEDq1yxeeyfwB21JRT-70" value="" style="endArrow=none;html=1;rounded=0;exitX=0.567;exitY=-0.05;exitDx=0;exitDy=0;exitPerimeter=0;" parent="1" source="vvdEDq1yxeeyfwB21JRT-53" target="vvdEDq1yxeeyfwB21JRT-71" edge="1">
          <mxGeometry width="50" height="50" relative="1" as="geometry">
            <mxPoint x="1850" y="-245" as="sourcePoint" />
            <mxPoint x="1900" y="-295" as="targetPoint" />
          </mxGeometry>
        </mxCell>
        <mxCell id="vvdEDq1yxeeyfwB21JRT-71" value="Has" style="rhombus;whiteSpace=wrap;html=1;" parent="1" vertex="1">
          <mxGeometry x="1810" y="-362.5" width="80" height="80" as="geometry" />
        </mxCell>
        <mxCell id="vvdEDq1yxeeyfwB21JRT-72" value="" style="endArrow=none;html=1;rounded=0;" parent="1" edge="1">
          <mxGeometry width="50" height="50" relative="1" as="geometry">
            <mxPoint x="1850" y="-362.5" as="sourcePoint" />
            <mxPoint x="1900" y="-412.5" as="targetPoint" />
          </mxGeometry>
        </mxCell>
        <mxCell id="vvdEDq1yxeeyfwB21JRT-74" value="Supervisor" style="rounded=0;whiteSpace=wrap;html=1;" parent="1" vertex="1">
          <mxGeometry x="1900" y="-445" width="120" height="60" as="geometry" />
        </mxCell>
        <mxCell id="vvdEDq1yxeeyfwB21JRT-75" value="" style="endArrow=none;html=1;rounded=0;exitX=0.178;exitY=-0.022;exitDx=0;exitDy=0;exitPerimeter=0;" parent="1" source="vvdEDq1yxeeyfwB21JRT-74" target="vvdEDq1yxeeyfwB21JRT-76" edge="1">
          <mxGeometry width="50" height="50" relative="1" as="geometry">
            <mxPoint x="1920" y="-450" as="sourcePoint" />
            <mxPoint x="1900" y="-510" as="targetPoint" />
            <Array as="points" />
          </mxGeometry>
        </mxCell>
        <mxCell id="vvdEDq1yxeeyfwB21JRT-76" value="SupervisorID" style="ellipse;whiteSpace=wrap;html=1;" parent="1" vertex="1">
          <mxGeometry x="1840" y="-550" width="120" height="30" as="geometry" />
        </mxCell>
        <mxCell id="vvdEDq1yxeeyfwB21JRT-77" value="" style="endArrow=none;html=1;rounded=0;" parent="1" target="vvdEDq1yxeeyfwB21JRT-78" edge="1">
          <mxGeometry width="50" height="50" relative="1" as="geometry">
            <mxPoint x="1950" y="-446.25" as="sourcePoint" />
            <mxPoint x="2000" y="-510" as="targetPoint" />
          </mxGeometry>
        </mxCell>
        <mxCell id="vvdEDq1yxeeyfwB21JRT-78" value="ContractID" style="ellipse;whiteSpace=wrap;html=1;" parent="1" vertex="1">
          <mxGeometry x="1950" y="-580" width="120" height="32.5" as="geometry" />
        </mxCell>
        <mxCell id="vvdEDq1yxeeyfwB21JRT-79" value="" style="endArrow=none;html=1;rounded=0;" parent="1" target="vvdEDq1yxeeyfwB21JRT-80" edge="1">
          <mxGeometry width="50" height="50" relative="1" as="geometry">
            <mxPoint x="1985" y="-446.25" as="sourcePoint" />
            <mxPoint x="2035" y="-496.25" as="targetPoint" />
          </mxGeometry>
        </mxCell>
        <mxCell id="vvdEDq1yxeeyfwB21JRT-80" value="SupervisorName" style="ellipse;whiteSpace=wrap;html=1;" parent="1" vertex="1">
          <mxGeometry x="2020" y="-537.5" width="120" height="56.25" as="geometry" />
        </mxCell>
        <mxCell id="vvdEDq1yxeeyfwB21JRT-89" value="" style="endArrow=none;html=1;rounded=0;" parent="1" target="vvdEDq1yxeeyfwB21JRT-90" edge="1">
          <mxGeometry width="50" height="50" relative="1" as="geometry">
            <mxPoint x="1900" y="-450" as="sourcePoint" />
            <mxPoint x="1910" y="-450" as="targetPoint" />
          </mxGeometry>
        </mxCell>
        <mxCell id="vvdEDq1yxeeyfwB21JRT-90" value="TradeName" style="ellipse;whiteSpace=wrap;html=1;" parent="1" vertex="1">
          <mxGeometry x="1670" y="-610" width="120" height="52.5" as="geometry" />
        </mxCell>
        <mxCell id="PaaMk7QIoCMxK0tilOwz-2" value="" style="endArrow=none;html=1;rounded=0;exitX=0;exitY=0.5;exitDx=0;exitDy=0;entryX=0;entryY=1.011;entryDx=0;entryDy=0;entryPerimeter=0;" parent="1" source="3oWLM_c16b4enqOHihXa-2" target="PaaMk7QIoCMxK0tilOwz-1" edge="1">
          <mxGeometry width="50" height="50" relative="1" as="geometry">
            <mxPoint x="-350" y="-567" as="sourcePoint" />
            <mxPoint x="-460" y="-567" as="targetPoint" />
          </mxGeometry>
        </mxCell>
        <mxCell id="PaaMk7QIoCMxK0tilOwz-1" value="1...1" style="text;html=1;align=center;verticalAlign=middle;resizable=0;points=[];autosize=1;strokeColor=none;fillColor=none;" parent="1" vertex="1">
          <mxGeometry x="-460" y="-595" width="50" height="30" as="geometry" />
        </mxCell>
        <mxCell id="PaaMk7QIoCMxK0tilOwz-4" value="1...1" style="text;html=1;align=center;verticalAlign=middle;resizable=0;points=[];autosize=1;strokeColor=none;fillColor=none;" parent="1" vertex="1">
          <mxGeometry x="-75" y="-632" width="50" height="30" as="geometry" />
        </mxCell>
        <mxCell id="PaaMk7QIoCMxK0tilOwz-5" value="1...*" style="text;html=1;align=center;verticalAlign=middle;resizable=0;points=[];autosize=1;strokeColor=none;fillColor=none;" parent="1" vertex="1">
          <mxGeometry x="30" y="-582" width="40" height="30" as="geometry" />
        </mxCell>
        <mxCell id="PaaMk7QIoCMxK0tilOwz-6" value="1...1" style="text;html=1;align=center;verticalAlign=middle;resizable=0;points=[];autosize=1;strokeColor=none;fillColor=none;" parent="1" vertex="1">
          <mxGeometry x="25" y="-402" width="50" height="30" as="geometry" />
        </mxCell>
        <mxCell id="PaaMk7QIoCMxK0tilOwz-7" value="1...*" style="text;html=1;strokeColor=none;fillColor=none;align=center;verticalAlign=middle;whiteSpace=wrap;rounded=0;" parent="1" vertex="1">
          <mxGeometry x="92.5" y="-630" width="60" height="30" as="geometry" />
        </mxCell>
        <mxCell id="PaaMk7QIoCMxK0tilOwz-10" value="*...*" style="text;html=1;align=center;verticalAlign=middle;resizable=0;points=[];autosize=1;strokeColor=none;fillColor=none;" parent="1" vertex="1">
          <mxGeometry x="560" y="-502" width="40" height="30" as="geometry" />
        </mxCell>
        <mxCell id="PaaMk7QIoCMxK0tilOwz-11" value="*...*" style="text;html=1;align=center;verticalAlign=middle;resizable=0;points=[];autosize=1;strokeColor=none;fillColor=none;" parent="1" vertex="1">
          <mxGeometry x="500" y="-622" width="40" height="30" as="geometry" />
        </mxCell>
        <mxCell id="PaaMk7QIoCMxK0tilOwz-12" style="edgeStyle=orthogonalEdgeStyle;rounded=0;orthogonalLoop=1;jettySize=auto;html=1;exitX=0.5;exitY=1;exitDx=0;exitDy=0;" parent="1" source="pS3guI-tFmk6sZYJYbPy-153" target="pS3guI-tFmk6sZYJYbPy-153" edge="1">
          <mxGeometry relative="1" as="geometry" />
        </mxCell>
        <mxCell id="PaaMk7QIoCMxK0tilOwz-20" value="1...1" style="text;html=1;align=center;verticalAlign=middle;resizable=0;points=[];autosize=1;strokeColor=none;fillColor=none;" parent="1" vertex="1">
          <mxGeometry x="650" y="-450" width="50" height="30" as="geometry" />
        </mxCell>
        <mxCell id="PaaMk7QIoCMxK0tilOwz-21" value="1...1" style="text;html=1;align=center;verticalAlign=middle;resizable=0;points=[];autosize=1;strokeColor=none;fillColor=none;" parent="1" vertex="1">
          <mxGeometry x="650" y="-225" width="50" height="30" as="geometry" />
        </mxCell>
        <mxCell id="PaaMk7QIoCMxK0tilOwz-22" value="*...*" style="text;html=1;align=center;verticalAlign=middle;resizable=0;points=[];autosize=1;strokeColor=none;fillColor=none;" parent="1" vertex="1">
          <mxGeometry x="840" y="-372" width="40" height="30" as="geometry" />
        </mxCell>
        <mxCell id="PaaMk7QIoCMxK0tilOwz-23" value="1...*" style="text;html=1;align=center;verticalAlign=middle;resizable=0;points=[];autosize=1;strokeColor=none;fillColor=none;" parent="1" vertex="1">
          <mxGeometry x="1000" y="-362" width="40" height="30" as="geometry" />
        </mxCell>
        <mxCell id="PaaMk7QIoCMxK0tilOwz-24" value="*...1" style="text;html=1;align=center;verticalAlign=middle;resizable=0;points=[];autosize=1;strokeColor=none;fillColor=none;" parent="1" vertex="1">
          <mxGeometry x="1330" y="-302" width="40" height="30" as="geometry" />
        </mxCell>
        <mxCell id="PaaMk7QIoCMxK0tilOwz-25" value="1...1" style="text;html=1;align=center;verticalAlign=middle;resizable=0;points=[];autosize=1;strokeColor=none;fillColor=none;" parent="1" vertex="1">
          <mxGeometry x="1520" y="-270" width="50" height="30" as="geometry" />
        </mxCell>
        <mxCell id="PaaMk7QIoCMxK0tilOwz-26" value="1...1" style="text;html=1;align=center;verticalAlign=middle;resizable=0;points=[];autosize=1;strokeColor=none;fillColor=none;" parent="1" vertex="1">
          <mxGeometry x="1745" y="-262" width="50" height="30" as="geometry" />
        </mxCell>
        <mxCell id="PaaMk7QIoCMxK0tilOwz-27" value="1...1" style="text;html=1;align=center;verticalAlign=middle;resizable=0;points=[];autosize=1;strokeColor=none;fillColor=none;" parent="1" vertex="1">
          <mxGeometry x="1845" y="-272" width="50" height="30" as="geometry" />
        </mxCell>
        <mxCell id="PaaMk7QIoCMxK0tilOwz-28" value="1...1" style="text;html=1;align=center;verticalAlign=middle;resizable=0;points=[];autosize=1;strokeColor=none;fillColor=none;" parent="1" vertex="1">
          <mxGeometry x="1865" y="-392" width="50" height="30" as="geometry" />
        </mxCell>
        <mxCell id="PaaMk7QIoCMxK0tilOwz-30" value="1...*" style="text;html=1;align=center;verticalAlign=middle;resizable=0;points=[];autosize=1;strokeColor=none;fillColor=none;" parent="1" vertex="1">
          <mxGeometry x="240" y="-212" width="40" height="30" as="geometry" />
        </mxCell>
        <mxCell id="PaaMk7QIoCMxK0tilOwz-31" value="*...1" style="text;html=1;align=center;verticalAlign=middle;resizable=0;points=[];autosize=1;strokeColor=none;fillColor=none;" parent="1" vertex="1">
          <mxGeometry x="540" y="-202" width="40" height="30" as="geometry" />
        </mxCell>
        <mxCell id="Hws1qCOTDgivhAAAT1vd-3" value="" style="endArrow=none;html=1;rounded=0;" edge="1" parent="1" target="Hws1qCOTDgivhAAAT1vd-4">
          <mxGeometry width="50" height="50" relative="1" as="geometry">
            <mxPoint x="95" y="-645" as="sourcePoint" />
            <mxPoint x="145" y="-720" as="targetPoint" />
          </mxGeometry>
        </mxCell>
        <mxCell id="Hws1qCOTDgivhAAAT1vd-4" value="PhoneNo&lt;br&gt;" style="ellipse;whiteSpace=wrap;html=1;" vertex="1" parent="1">
          <mxGeometry x="115" y="-750" width="105" height="40" as="geometry" />
        </mxCell>
      </root>
    </mxGraphModel>
  </diagram>
</mxfile>
